<svg width="51" height="51" viewBox="0 0 51 51" fill="none" xmlns="http://www.w3.org/2000/svg">
<path fill-rule="evenodd" clip-rule="evenodd" d="M5.09999 10.2C4.64913 10.2 4.21672 10.3791 3.89791 10.6979C3.5791 11.0167 3.39999 11.4491 3.39999 11.9C3.39999 12.3509 3.5791 12.7833 3.89791 13.1021C4.21672 13.4209 4.64913 13.6 5.09999 13.6H45.9C46.3509 13.6 46.7833 13.4209 47.1021 13.1021C47.4209 12.7833 47.6 12.3509 47.6 11.9C47.6 11.4491 47.4209 11.0167 47.1021 10.6979C46.7833 10.3791 46.3509 10.2 45.9 10.2H5.09999ZM3.39999 25.5C3.39999 25.0491 3.5791 24.6167 3.89791 24.2979C4.21672 23.9791 4.64913 23.8 5.09999 23.8H45.9C46.3509 23.8 46.7833 23.9791 47.1021 24.2979C47.4209 24.6167 47.6 25.0491 47.6 25.5C47.6 25.9509 47.4209 26.3833 47.1021 26.7021C46.7833 27.0209 46.3509 27.2 45.9 27.2H5.09999C4.64913 27.2 4.21672 27.0209 3.89791 26.7021C3.5791 26.3833 3.39999 25.9509 3.39999 25.5V25.5ZM3.39999 39.1C3.39999 38.6491 3.5791 38.2167 3.89791 37.8979C4.21672 37.5791 4.64913 37.4 5.09999 37.4H45.9C46.3509 37.4 46.7833 37.5791 47.1021 37.8979C47.4209 38.2167 47.6 38.6491 47.6 39.1C47.6 39.5509 47.4209 39.9833 47.1021 40.3021C46.7833 40.6209 46.3509 40.8 45.9 40.8H5.09999C4.64913 40.8 4.21672 40.6209 3.89791 40.3021C3.5791 39.9833 3.39999 39.5509 3.39999 39.1V39.1Z" fill="white"/>
</svg>
